<?xml version="1.0" encoding="UTF-8" standalone="no"?>
<!-- Created with Inkscape (http://www.inkscape.org/) -->

<svg
   xmlns:dc="http://purl.org/dc/elements/1.1/"
   xmlns:cc="http://creativecommons.org/ns#"
   xmlns:rdf="http://www.w3.org/1999/02/22-rdf-syntax-ns#"
   xmlns:svg="http://www.w3.org/2000/svg"
   xmlns="http://www.w3.org/2000/svg"
   xmlns:sodipodi="http://sodipodi.sourceforge.net/DTD/sodipodi-0.dtd"
   xmlns:inkscape="http://www.inkscape.org/namespaces/inkscape"
   width="6.2324595mm"
   height="6.4895062mm"
   viewBox="0 0 22.083518 22.994313"
   id="svg4217"
   version="1.1"
   inkscape:version="0.91 r13725"
   sodipodi:docname="tip.svg"
   inkscape:export-filename="/media/nicolas/Data/cours/hes-ete/qgis_python_plugin/tex/images/tip.png"
   inkscape:export-xdpi="120.078"
   inkscape:export-ydpi="120.078">
  <defs
     id="defs4219" />
  <sodipodi:namedview
     id="base"
     pagecolor="#ffffff"
     bordercolor="#666666"
     borderopacity="1.0"
     inkscape:pageopacity="0.0"
     inkscape:pageshadow="2"
     inkscape:zoom="22.627417"
     inkscape:cx="-1.2948261"
     inkscape:cy="4.5711249"
     inkscape:document-units="px"
     inkscape:current-layer="layer1"
     showgrid="false"
     fit-margin-top="0"
     fit-margin-left="0"
     fit-margin-right="0"
     fit-margin-bottom="0"
     inkscape:window-width="2560"
     inkscape:window-height="1416"
     inkscape:window-x="1920"
     inkscape:window-y="24"
     inkscape:window-maximized="1" />
  <metadata
     id="metadata4222">
    <rdf:RDF>
      <cc:Work
         rdf:about="">
        <dc:format>image/svg+xml</dc:format>
        <dc:type
           rdf:resource="http://purl.org/dc/dcmitype/StillImage" />
        <dc:title></dc:title>
      </cc:Work>
    </rdf:RDF>
  </metadata>
  <g
     inkscape:label="Layer 1"
     inkscape:groupmode="layer"
     id="layer1"
     transform="translate(-281.75148,-457.47176)">
    <g
       id="g4837"
       inkscape:export-xdpi="120.078"
       inkscape:export-ydpi="120.078">
      <path
         inkscape:export-ydpi="120.078"
         inkscape:export-xdpi="120.078"
         inkscape:connector-curvature="0"
         id="path4816"
         d="m 291.58909,480.3812 c -0.2422,-0.15043 -0.34878,-0.30946 -0.44889,-0.66985 -0.0973,-0.35006 -0.0988,-0.35223 -0.34154,-0.47766 -0.31639,-0.16349 -0.43349,-0.27727 -0.57252,-0.55625 -0.1027,-0.20609 -0.11382,-0.2824 -0.11382,-0.78077 0,-0.49927 0.01,-0.56708 0.10332,-0.70566 0.0567,-0.0844 0.1723,-0.19981 0.25663,-0.25664 l 0.15332,-0.10332 2.16765,0 2.16765,0 0.15022,0.10225 c 0.30105,0.20489 0.33872,0.30089 0.35563,0.90642 0.0119,0.42758 -9.2e-4,0.59103 -0.0596,0.74395 -0.0954,0.24983 -0.38456,0.54854 -0.64066,0.66181 -0.19322,0.0855 -0.20277,0.0996 -0.31386,0.46381 -0.12168,0.39892 -0.28418,0.61308 -0.53776,0.70868 -0.0765,0.0289 -0.54201,0.0482 -1.15871,0.0481 -0.92631,-1.4e-4 -1.04461,-0.009 -1.16711,-0.0849 z"
         style="fill:#000000" />
      <path
         inkscape:export-ydpi="120.078"
         inkscape:export-xdpi="120.078"
         inkscape:connector-curvature="0"
         id="path4814"
         d="m 285.38597,476.51429 c -0.23363,-0.0423 -0.44265,-0.18154 -0.52117,-0.34698 -0.0867,-0.1828 -0.0889,-0.52974 -0.004,-0.69033 0.0971,-0.18419 1.75618,-1.81329 1.90355,-1.8691 0.34763,-0.1317 0.7366,0.0117 0.88968,0.32788 0.11157,0.23046 0.12208,0.44174 0.0306,0.61422 -0.11175,0.2106 -1.80565,1.86289 -1.97966,1.93101 -0.0954,0.0374 -0.22285,0.0507 -0.31873,0.0333 z"
         style="fill:#ffce00;fill-opacity:1" />
      <path
         inkscape:export-ydpi="120.078"
         inkscape:export-xdpi="120.078"
         inkscape:connector-curvature="0"
         id="path4812"
         d="m 299.90736,476.48965 c -0.13185,-0.0462 -0.41088,-0.29331 -1.06108,-0.9398 -0.4852,-0.48243 -0.91077,-0.94293 -0.94573,-1.02335 -0.13925,-0.32045 -0.0277,-0.64524 0.29641,-0.86373 0.18923,-0.12752 0.47312,-0.13564 0.66243,-0.019 0.075,0.0462 0.51886,0.46749 0.9864,0.93618 0.93884,0.94113 1.04683,1.10123 0.94694,1.40391 -0.13744,0.41645 -0.51861,0.63418 -0.88537,0.50574 z"
         style="fill:#ffce00;fill-opacity:1" />
      <path
         inkscape:export-ydpi="120.078"
         inkscape:export-xdpi="120.078"
         sodipodi:nodetypes="ccsssssccsscscccc"
         inkscape:connector-curvature="0"
         id="path4810"
         d="m 290.83022,476.06203 c -0.25697,-0.01 -0.5035,-0.23526 -0.61899,-0.42212 -0.0517,-0.0837 -0.14492,-0.36622 -0.20711,-0.62784 -0.25625,-1.07808 -0.6229,-1.77131 -1.37532,-2.60046 -1.35781,-1.49627 -1.84016,-3.35403 -1.37139,-5.28184 0.24398,-1.00339 0.73675,-1.8652 1.51022,-2.64125 0.73276,-0.73521 1.62802,-1.25459 2.57156,-1.49187 2.00805,-0.50499 3.99894,0.0332 5.45696,1.47491 0.56938,0.56304 0.9387,1.10119 1.24194,1.80964 0.32031,0.74839 0.44489,1.40561 0.43714,2.30637 -0.0125,1.45462 -0.52063,2.72289 -1.54598,3.8586 -0.80774,0.89467 -1.17882,1.63259 -1.40933,2.80256 -0.0659,0.33395 -0.25088,0.58683 -0.53015,0.72431 l -0.21992,0.10827 -1.88573,0.006 c -1.03715,0.004 -1.96141,-0.008 -2.0539,-0.0265 z"
         style="fill:#fff000;fill-opacity:1;stroke:#000000;stroke-width:0.91235977;stroke-miterlimit:4;stroke-dasharray:none;stroke-opacity:1" />
      <path
         inkscape:export-ydpi="120.078"
         inkscape:export-xdpi="120.078"
         inkscape:connector-curvature="0"
         id="path4808"
         d="m 289.66363,469.01245 c 0.15107,-0.0808 0.22115,-0.24647 0.26954,-0.637 0.0717,-0.57848 0.16631,-0.89539 0.37186,-1.24568 0.34745,-0.59211 1.01938,-1.14464 1.60708,-1.3215 0.1129,-0.0339 0.38291,-0.084 0.6,-0.11126 0.66674,-0.0836 0.8264,-0.19947 0.8264,-0.59996 0,-0.19496 -0.0205,-0.24614 -0.1509,-0.37653 -0.0922,-0.0922 -0.21856,-0.16361 -0.32487,-0.18354 -0.20466,-0.0384 -0.99554,0.0803 -1.35171,0.20281 -0.80732,0.27775 -1.52052,0.83231 -2.04369,1.5891 -0.29099,0.42094 -0.46912,0.84125 -0.58363,1.37705 -0.16128,0.75471 -0.10585,1.12423 0.19707,1.31368 0.15119,0.0946 0.39845,0.0915 0.58285,-0.006 z"
         style="fill:#ffffff;fill-opacity:1" />
      <path
         inkscape:export-ydpi="120.078"
         inkscape:export-xdpi="120.078"
         inkscape:connector-curvature="0"
         id="path4806"
         d="m 300.85863,469.19548 c -0.25334,-0.0341 -0.46199,-0.17014 -0.55199,-0.35974 -0.16092,-0.339 -0.0525,-0.74984 0.24358,-0.92275 0.12162,-0.071 0.26907,-0.0856 0.99807,-0.0988 0.47045,-0.009 1.08928,-0.004 1.37517,0.01 l 0.51981,0.0251 0.19587,0.19586 c 0.18229,0.1823 0.19586,0.21278 0.19586,0.44026 0,0.28347 -0.11841,0.49783 -0.34957,0.63284 -0.12961,0.0757 -0.26534,0.0855 -1.29496,0.0933 -0.6326,0.005 -1.23193,-0.002 -1.33184,-0.0157 z"
         style="fill:#ffce00;fill-opacity:1" />
      <path
         inkscape:export-ydpi="120.078"
         inkscape:export-xdpi="120.078"
         inkscape:connector-curvature="0"
         id="path4804"
         d="m 282.13074,469.13134 c -0.21309,-0.0927 -0.37926,-0.36415 -0.37926,-0.61952 0,-0.27176 0.1405,-0.48563 0.40932,-0.62307 0.20042,-0.10246 0.22674,-0.10409 1.45369,-0.0909 1.39945,0.015 1.44618,0.0247 1.63963,0.33771 0.15256,0.24684 0.14569,0.54438 -0.0175,0.75845 -0.22902,0.3004 -0.24575,0.30341 -1.67666,0.30142 -0.98663,-9.1e-4 -1.31926,-0.0162 -1.42921,-0.0641 z"
         style="fill:#ffce00;fill-opacity:1" />
      <path
         inkscape:export-ydpi="120.078"
         inkscape:export-xdpi="120.078"
         inkscape:connector-curvature="0"
         id="path4802"
         d="m 286.77252,463.40389 c -0.1679,-0.0894 -1.82396,-1.72883 -1.90501,-1.88589 -0.11149,-0.21608 -0.12148,-0.40851 -0.0318,-0.61134 0.14834,-0.33536 0.46165,-0.48577 0.81412,-0.39085 0.15776,0.0425 0.33324,0.195 1.05863,0.92016 0.47823,0.47808 0.90802,0.93238 0.95509,1.00956 0.16493,0.27049 0.0776,0.65143 -0.19742,0.86121 -0.20103,0.15332 -0.50746,0.19625 -0.69364,0.0972 z"
         style="fill:#ffce00;fill-opacity:1" />
      <path
         inkscape:export-ydpi="120.078"
         inkscape:export-xdpi="120.078"
         inkscape:connector-curvature="0"
         id="path4800"
         d="m 298.34656,463.43956 c -0.17233,-0.033 -0.45197,-0.33386 -0.48777,-0.52476 -0.0721,-0.38436 -0.0346,-0.44224 0.90241,-1.39049 0.94073,-0.95204 1.1269,-1.08596 1.43038,-1.02903 0.24523,0.046 0.39818,0.14 0.49776,0.3059 0.14028,0.23372 0.15867,0.42733 0.061,0.64233 -0.10229,0.22514 -1.7773,1.90566 -1.97342,1.9799 -0.12874,0.0487 -0.23873,0.0529 -0.43034,0.0161 z"
         style="fill:#ffce00;fill-opacity:1" />
      <path
         inkscape:export-ydpi="120.078"
         inkscape:export-xdpi="120.078"
         inkscape:connector-curvature="0"
         id="path4787"
         d="m 292.6625,461.06347 c -0.19742,-0.0466 -0.36981,-0.17632 -0.47649,-0.3585 -0.0772,-0.13165 -0.0849,-0.25994 -0.0864,-1.4333 -9.1e-4,-1.19861 0.005,-1.29935 0.0871,-1.44087 0.24685,-0.42266 0.80697,-0.4832 1.13519,-0.12271 0.0533,0.0586 0.11159,0.15448 0.12938,0.21306 0.0178,0.0586 0.0336,0.67199 0.035,1.36317 0.003,1.3325 -0.009,1.41169 -0.22431,1.60721 -0.0745,0.0674 -0.39712,0.22591 -0.43321,0.21281 -0.006,-0.002 -0.0819,-0.021 -0.16628,-0.0409 z"
         style="fill:#ffce00;fill-opacity:1" />
    </g>
  </g>
</svg>
