<?xml version="1.0" encoding="UTF-8" standalone="no"?>
<!-- Created with Inkscape (http://www.inkscape.org/) -->

<svg
   xmlns:dc="http://purl.org/dc/elements/1.1/"
   xmlns:cc="http://creativecommons.org/ns#"
   xmlns:rdf="http://www.w3.org/1999/02/22-rdf-syntax-ns#"
   xmlns:svg="http://www.w3.org/2000/svg"
   xmlns="http://www.w3.org/2000/svg"
   xmlns:sodipodi="http://sodipodi.sourceforge.net/DTD/sodipodi-0.dtd"
   xmlns:inkscape="http://www.inkscape.org/namespaces/inkscape"
   width="3.4719298mm"
   height="5.1107507mm"
   viewBox="0 0 12.302113 18.108959"
   id="svg4217"
   version="1.1"
   inkscape:version="0.91 r13725"
   sodipodi:docname="tip_l.svg"
   inkscape:export-filename="/media/nicolas/Data/cours/hes-ete/qgis_python_plugin/tex/images/tip.png"
   inkscape:export-xdpi="120.078"
   inkscape:export-ydpi="120.078">
  <defs
     id="defs4219" />
  <sodipodi:namedview
     id="base"
     pagecolor="#ffffff"
     bordercolor="#666666"
     borderopacity="1.0"
     inkscape:pageopacity="0.0"
     inkscape:pageshadow="2"
     inkscape:zoom="22.627417"
     inkscape:cx="-6.1729598"
     inkscape:cy="4.5711246"
     inkscape:document-units="px"
     inkscape:current-layer="layer1"
     showgrid="false"
     fit-margin-top="0"
     fit-margin-left="0"
     fit-margin-right="0"
     fit-margin-bottom="0"
     inkscape:window-width="2560"
     inkscape:window-height="1416"
     inkscape:window-x="1920"
     inkscape:window-y="24"
     inkscape:window-maximized="1" />
  <metadata
     id="metadata4222">
    <rdf:RDF>
      <cc:Work
         rdf:about="">
        <dc:format>image/svg+xml</dc:format>
        <dc:type
           rdf:resource="http://purl.org/dc/dcmitype/StillImage" />
        <dc:title></dc:title>
      </cc:Work>
    </rdf:RDF>
  </metadata>
  <g
     inkscape:label="Layer 1"
     inkscape:groupmode="layer"
     id="layer1"
     transform="translate(-286.62961,-462.35711)">
    <path
       style="fill:#000000"
       d="m 291.58909,480.3812 c -0.2422,-0.15043 -0.34878,-0.30946 -0.44889,-0.66985 -0.0973,-0.35006 -0.0988,-0.35223 -0.34154,-0.47766 -0.31639,-0.16349 -0.43349,-0.27727 -0.57252,-0.55625 -0.1027,-0.20609 -0.11382,-0.2824 -0.11382,-0.78077 0,-0.49927 0.01,-0.56708 0.10332,-0.70566 0.0567,-0.0844 0.1723,-0.19981 0.25663,-0.25664 l 0.15332,-0.10332 2.16765,0 2.16765,0 0.15022,0.10225 c 0.30105,0.20489 0.33872,0.30089 0.35563,0.90642 0.0119,0.42758 -9.2e-4,0.59103 -0.0596,0.74395 -0.0954,0.24983 -0.38456,0.54854 -0.64066,0.66181 -0.19322,0.0855 -0.20277,0.0996 -0.31386,0.46381 -0.12168,0.39892 -0.28418,0.61308 -0.53776,0.70868 -0.0765,0.0289 -0.54201,0.0482 -1.15871,0.0481 -0.92631,-1.4e-4 -1.04461,-0.009 -1.16711,-0.0849 z"
       id="path4816"
       inkscape:connector-curvature="0"
       inkscape:export-xdpi="120.078"
       inkscape:export-ydpi="120.078" />
    <path
       style="fill:#fff000;fill-opacity:1;stroke:#000000;stroke-width:0.91235977;stroke-miterlimit:4;stroke-dasharray:none;stroke-opacity:1"
       d="m 290.83022,476.06203 c -0.25697,-0.01 -0.5035,-0.23526 -0.61899,-0.42212 -0.0517,-0.0837 -0.14492,-0.36622 -0.20711,-0.62784 -0.25625,-1.07808 -0.6229,-1.77131 -1.37532,-2.60046 -1.35781,-1.49627 -1.84016,-3.35403 -1.37139,-5.28184 0.24398,-1.00339 0.73675,-1.8652 1.51022,-2.64125 0.73276,-0.73521 1.62802,-1.25459 2.57156,-1.49187 2.00805,-0.50499 3.99894,0.0332 5.45696,1.47491 0.56938,0.56304 0.9387,1.10119 1.24194,1.80964 0.32031,0.74839 0.44489,1.40561 0.43714,2.30637 -0.0125,1.45462 -0.52063,2.72289 -1.54598,3.8586 -0.80774,0.89467 -1.17882,1.63259 -1.40933,2.80256 -0.0659,0.33395 -0.25088,0.58683 -0.53015,0.72431 l -0.21992,0.10827 -1.88573,0.006 c -1.03715,0.004 -1.96141,-0.008 -2.0539,-0.0265 z"
       id="path4810"
       inkscape:connector-curvature="0"
       sodipodi:nodetypes="ccsssssccsscscccc"
       inkscape:export-xdpi="120.078"
       inkscape:export-ydpi="120.078" />
    <path
       style="fill:#ffffff;fill-opacity:1"
       d="m 289.66363,469.01245 c 0.15107,-0.0808 0.22115,-0.24647 0.26954,-0.637 0.0717,-0.57848 0.16631,-0.89539 0.37186,-1.24568 0.34745,-0.59211 1.01938,-1.14464 1.60708,-1.3215 0.1129,-0.0339 0.38291,-0.084 0.6,-0.11126 0.66674,-0.0836 0.8264,-0.19947 0.8264,-0.59996 0,-0.19496 -0.0205,-0.24614 -0.1509,-0.37653 -0.0922,-0.0922 -0.21856,-0.16361 -0.32487,-0.18354 -0.20466,-0.0384 -0.99554,0.0803 -1.35171,0.20281 -0.80732,0.27775 -1.52052,0.83231 -2.04369,1.5891 -0.29099,0.42094 -0.46912,0.84125 -0.58363,1.37705 -0.16128,0.75471 -0.10585,1.12423 0.19707,1.31368 0.15119,0.0946 0.39845,0.0915 0.58285,-0.006 z"
       id="path4808"
       inkscape:connector-curvature="0"
       inkscape:export-xdpi="120.078"
       inkscape:export-ydpi="120.078" />
  </g>
</svg>
